# AST/ASF file generated using VICON BodyLanguage
# -----------------------------------------------
:version 1.10
:name VICON
:units
  mass 1.0
  length 0.45
  angle deg
:documentation
   .ast/.asf automatically generated from VICON data using
   VICON BodyBuilder and BodyLanguage model FoxedUp or BRILLIANT.MOD
:root
   order TX TY TZ RX RY RZ
   axis XYZ
   position 0 0 0  
   orientation 0 0 0 
:bonedata
  begin
     id 1 
     name lhipjoint
     direction 0.710188 -0.616876 0.339259 
     length 2.5669 
     axis 0 0 0  XYZ
  end
  begin
     id 2 
     name lfemur
     direction 0.34202 -0.939693 0  
     length 7.12796  
     axis 0 0 20  XYZ
    dof rx ry rz
    limits (-160.0 20.0)
           (-70.0 70.0)
           (-60.0 70.0)
  end
  begin
     id 3 
     name ltibia
     direction 0.34202 -0.939693 0   
     length 7.58108   
     axis 0 0 20   XYZ
    dof rx
    limits (-10.0 170.0)
  end
  begin
     id 4 
     name lfoot
     direction 0.0669471 -0.183936 0.980656   
     length 2.17365   
     axis -90 7.62852e-016 20   XYZ
    dof rx rz
    limits (-45.0 90.0)
           (-70.0 20.0)
  end
  begin
     id 5 
     name ltoes
     direction 1.53508e-011 -4.21705e-011 1   
     length 1.09427   
     axis -90 7.62852e-016 20   XYZ
    dof rx
    limits (-90.0 20.0)
  end
  begin
     id 6 
     name rhipjoint
     direction -0.700191 -0.625589 0.34405   
     length 2.53115  
     axis 0 0 0  XYZ 
  end
  begin
     id 7 
     name rfemur
     direction -0.34202 -0.939693 0   
     length 7.33006   
     axis 0 0 -20   XYZ
    dof rx ry rz
    limits (-160.0 20.0)
           (-70.0 70.0)
           (-70.0 60.0)
  end
  begin
     id 8 
     name rtibia
     direction -0.34202 -0.939693 0   
     length 7.64926   
     axis 0 0 -20   XYZ
    dof rx
    limits (-10.0 170.0)
 end
 begin
     id 9 
     name rfoot
     direction -0.0688927 -0.189281 0.979503   
     length 2.20493  
     axis -90 -7.62852e-016 -20   XYZ
    dof rx rz
    limits (-45.0 90.0)
           (-20.0 70.0)
  end
  begin
     id 10 
     name rtoes
     direction -1.53567e-011 -4.21933e-011 1   
     length 1.10919   
     axis -90 -7.62852e-016 -20   XYZ
    dof rx
    limits (-90.0 20.0)
  end
  begin
     id 11 
     name lowerback
     direction -0.0167868 0.989873 -0.140959   
     length 2.14596   
     axis 0 0 0   XYZ
    dof rx ry rz
    limits (-20.0 45.0)
           (-30.0 30.0)
           (-30.0 30.0)
  end
  begin
     id 12 
     name upperback
     direction 0.0129109 0.998033 0.0613525   
     length 2.10457   
     axis 0 0 0   XYZ
    dof rx ry rz
    limits (-20.0 45.0)
           (-30.0 30.0)
           (-30.0 30.0)
  end
  begin
     id 13 
     name thorax
     direction 0.0177047 0.991119 0.131797   
     length 2.17652   
     axis 0 0 0   XYZ
    dof rx ry rz
    limits (-20.0 45.0)
           (-30.0 30.0)
           (-30.0 30.0)
  end
  begin
     id 14 
     name lowerneck
     direction -0.0336893 0.997548 0.0613464   
     length 1.8912   
     axis 0 0 0   XYZ
    dof rx ry rz
    limits (-20.0 45.0)
           (-30.0 30.0)
           (-30.0 30.0)
  end
  begin
     id 15 
     name upperneck
     direction 0.0435909 0.997179 -0.0611028   
     length 1.8829   
     axis 0 0 0   XYZ
    dof rx ry rz
    limits (-20.0 45.0)
           (-30.0 30.0)
           (-30.0 30.0)
  end
  begin
     id 16
     name head
     direction 0.0175076 0.999444 -0.0283782  
     length 1.93197  
     axis 0 0 0   XYZ
    dof rx ry rz
    limits (-20.0 45.0)
           (-30.0 30.0)
           (-30.0 30.0)
  end
  begin
     id 17 
     name lclavicle
     direction 0.919164 0.389875 0.0559876  
     length 3.60004  
     axis 0 0 0   XYZ
    dof ry rz
    limits (-20.0 10.0)
           (0.0 20.0)
  end
  begin
     id 18 
     name lhumerus
     direction 1 -4.48958e-011 6.89191e-027   
     length 5.43301   
     axis 180 -30 -90   XYZ
    dof rx ry rz
    limits (-60.0 90.0)
           (-90.0 90.0)
           (-90.0 90.0)
  end
  begin
     id 19
     name lradius
     direction 1 -4.4897e-011 3.24727e-027   
     length 3.15936   
     axis 180 -30 -90   XYZ
    dof rx
    limits (-10.0 170.0)
  end
  begin
     id 20
     name lwrist
     direction 1 -4.4897e-011 9.00228e-027   
     length 1.57968   
     axis -6.29373e-015 90 90   XYZ
    dof ry
    limits (-180.0 0.0)
 end
  begin
     id 21 
     name lhand
     direction 1 -4.48968e-011 1.80042e-026   
     length 0.712827   
     axis -1.14882e-014 90 90   XYZ
    dof rx rz
    limits (-90.0 90.0)
           (-45.0 45.0)
  end
  begin
     id 22 
     name lfingers
     direction 1 -4.49019e-011 3.60267e-026   
     length 0.574699   
     axis -2.29769e-014 90 90   XYZ
    dof rx
    limits (0.0 90.0)
  end
  begin
     id 23
     name lthumb
     direction 0.707107 -6.3498e-011 0.707107   
     length 0.825157   
     axis -90 45 5.37419e-014   XYZ
    dof rx rz
    limits (-45.0 45.0)
           (-45.0 45.0)
  end
  begin
     id 24 
     name rclavicle
     direction -0.890334 0.455305 -0.00132111   
     length 3.51494  
     axis 0 0 0   XYZ 
    dof ry rz
    limits (-10.0 20.0)
           (-20.0 0.0)
  end
  begin
     id 25 
     name rhumerus
     direction -1 -4.48967e-011 5.07175e-028  
     length 5.34194   
     axis 180 30 90   XYZ
    dof rx ry rz
    limits (-90.0 60.0)
           (-90.0 90.0)
           (-90.0 90.0)
  end
  begin
     id 26 
     name rradius
     direction -1 -4.48955e-011 3.30467e-027   
     length 3.19351   
     axis 180 30 90   XYZ
    dof rx
    limits (-10.0 170.0)
  end
  begin
     id 27 
     name rwrist
     direction -1 -4.48968e-011 9.00208e-027   
     length 1.59676   
     axis -6.29373e-015 -90 -90   XYZ
    dof ry
    limits (-180.0 0.0)
  end
  begin
     id 28
     name rhand
     direction -1 -4.49e-011 1.80099e-026   
     length 0.743862   
     axis -1.14882e-014 -90 -90   XYZ
    dof rx rz
    limits (-90.0 90.0)
           (-45.0 45.0)
  end
  begin
     id 29
     name rfingers
     direction -1 -4.49009e-011 3.6023e-026   
     length 0.599721   
     axis -2.29769e-014 -90 -90   XYZ
    dof rx
    limits (0.0 90.0)
  end
  begin
     id 30
     name rthumb
     direction -0.707107 -6.35025e-011 0.707107   
     length 0.861083   
     axis -90 -45 -5.37419e-014   XYZ
    dof rx rz
    limits (-45.0 45.0)
           (-45.0 45.0)
  end
:hierarchy
  begin
    root lhipjoint rhipjoint lowerback
    lhipjoint lfemur
    lfemur ltibia
    ltibia lfoot
    lfoot ltoes
    rhipjoint rfemur
    rfemur rtibia
    rtibia rfoot
    rfoot rtoes
    lowerback upperback
    upperback thorax
    thorax lowerneck lclavicle rclavicle
    lowerneck upperneck
    upperneck head
    lclavicle lhumerus
    lhumerus lradius
    lradius lwrist
    lwrist lhand lthumb
    lhand lfingers
    rclavicle rhumerus
    rhumerus rradius
    rradius rwrist
    rwrist rhand rthumb
    rhand rfingers
  end

#!OML:ASF H:\Martial Arts Walks\Project 1\Capture day 1\Session 1\male.ASF
:FULLY-SPECIFIED
:DEGREES
404
root -1.05375 13.6253 -14.7677 9.81788 27.6009 12.3735
lowerback 12.609 3.70895 -16.5615
upperback -1.51765 2.2288 -1.46636
thorax -9.46592 1.89413 7.22448
lowerneck 2.37247 -12.7109 -12.7162
upperneck 1.23047 -17.4417 11.0101
head 2.06095 -8.76868 4.77633
rclavicle -4.4155e-014 1.88845e-014
rhumerus 44.9238 -13.4957 -57.2389
rradius 18.6924
rwrist 26.6806
rhand -9.56805 -22.047
rfingers 7.12502
rthumb 16.3996 -51.3737
lclavicle -4.4155e-014 1.88845e-014
lhumerus -70.0335 -17.6907 104.482
lradius 102.058
lwrist 54.7571
lhand -1.45691 47.2985
lfingers 7.12502
lthumb 24.1942 75.7925
rfemur -69.4135 -26.5773 6.79564
rtibia 79.8222
rfoot -10.5547 8.06567
rtoes 2.17421
lfemur 18.3807 1.42376 -12.247
ltibia 26.191
lfoot -20.0351 33.2113
ltoes -30.0262
405
root -1.0512 13.6217 -14.7636 9.81348 27.5738 12.3765
lowerback 12.5972 3.70856 -16.5613
upperback -1.51097 2.232 -1.45851
thorax -9.45262 1.8946 7.23309
lowerneck 2.35833 -12.7081 -12.7285
upperneck 1.27033 -17.439 11.0085
head 2.07563 -8.76695 4.77521
rclavicle -3.2054e-014 5.22804e-014
rhumerus 44.9605 -13.4623 -57.1913
rradius 18.686
rwrist 26.6299
rhand -9.55785 -22.0675
rfingers 7.12502
rthumb 16.4094 -51.3935
lclavicle -3.2054e-014 5.22804e-014
lhumerus -70.0197 -17.6894 104.481
lradius 102.053
lwrist 54.7172
lhand -1.36271 47.2862
lfingers 7.12502
lthumb 24.2845 75.7681
rfemur -69.4427 -26.6082 6.80746
rtibia 79.8762
rfoot -10.5913 8.11577
rtoes 2.16087
lfemur 18.4562 1.41046 -12.2669
ltibia 26.1214
lfoot -20.0039 33.2392
ltoes -30.1203
406
root -1.04884 13.618 -14.7595 9.80836 27.5465 12.3791
lowerback 12.5862 3.70884 -16.565
upperback -1.50648 2.23514 -1.45065
thorax -9.44241 1.89557 7.24373
lowerneck 2.34507 -12.7035 -12.7389
upperneck 1.31555 -17.4342 11.0089
head 2.09156 -8.76422 4.77448
rclavicle -1.62258e-014 -2.34566e-014
rhumerus 44.9921 -13.4354 -57.1559
rradius 18.6821
rwrist 26.5654
rhand -9.55606 -22.0879
rfingers 7.12502
rthumb 16.4111 -51.4137
lclavicle -1.62258e-014 -2.34566e-014
lhumerus -70.0014 -17.6834 104.48
lradius 102.037
lwrist 54.7127
lhand -1.29631 47.271
lfingers 7.12502
lthumb 24.3482 75.7443
rfemur -69.474 -26.6384 6.82127
rtibia 79.9298
rfoot -10.6256 8.1653
rtoes 2.14871
lfemur 18.524 1.40728 -12.2787
ltibia 26.0654
lfoot -19.9858 33.2521
ltoes -30.2304
407
root -1.04672 13.6144 -14.7556 9.80255 27.5199 12.3809
lowerback 12.5739 3.70863 -16.5734
upperback -1.50248 2.2371 -1.44225
thorax -9.43205 1.89627 7.25792
lowerneck 2.33339 -12.6964 -12.7507
upperneck 1.36086 -17.4267 11.0178
head 2.10784 -8.76012 4.77666
rclavicle -5.74239e-014 9.54166e-015
rhumerus 45.0169 -13.4049 -57.1204
rradius 18.6867
rwrist 26.4874
rhand -9.55486 -22.1034
rfingers 7.12502
rthumb 16.4123 -51.4291
lclavicle -5.74239e-014 9.54166e-015
lhumerus -69.9756 -17.6729 104.477
lradius 102.011
lwrist 54.739
lhand -1.2295 47.2556
lfingers 7.12502
lthumb 24.4122 75.7203
rfemur -69.506 -26.6661 6.83664
rtibia 79.9825
rfoot -10.6542 8.211
rtoes 2.1431
lfemur 18.5818 1.41693 -12.281
ltibia 26.0252
lfoot -19.9747 33.2529
ltoes -30.3506
408
root -1.04495 13.6109 -14.7515 9.79505 27.4956 12.3798
lowerback 12.5635 3.71009 -16.5812
upperback -1.50033 2.24072 -1.43488
thorax -9.42528 1.89803 7.27006
lowerneck 2.32127 -12.6952 -12.7446
upperneck 1.40818 -17.4263 11.0123
head 2.12278 -8.75953 4.77172
rclavicle -2.92462e-014 4.37326e-015
rhumerus 45.031 -13.3921 -57.1022
rradius 18.6978
rwrist 26.4322
rhand -9.56225 -22.1081
rfingers 7.12502
rthumb 16.4052 -51.4344
lclavicle -2.92462e-014 4.37326e-015
lhumerus -69.9517 -17.6696 104.48
lradius 101.98
lwrist 54.7874
lhand -1.16482 47.2066
lfingers 7.12502
lthumb 24.4742 75.663
rfemur -69.5375 -26.6906 6.85543
rtibia 80.0344
rfoot -10.68 8.24923
rtoes 2.15163
lfemur 18.6303 1.43897 -12.271
ltibia 26.0003
lfoot -19.9838 33.2371
ltoes -30.4641
